<?xml version="1.0" encoding="UTF-8"?>
<!-- Generated by Pixelmator Pro 3.7.1 -->
<svg width="700" height="700" viewBox="0 0 700 700" xmlns="http://www.w3.org/2000/svg">
    <g id="Layer-1">
        <path id="Path" fill="#eaf4eb" stroke="none" visibility="hidden" d="M 2073.76123 1482.335815 L -74.530464 1482.335815 L -74.530464 -665.955933 L 2073.76123 -665.955933 L 2073.76123 1482.335815 Z"/>
        <g id="Group">
            <path id="path1" fill="#17ad9b" stroke="none" d="M 266.65686 170.446716 C 257.077942 172.209839 245.904556 161.901672 244.622284 145.214233 C 243.269943 130.933472 248.777603 119.435242 258.356506 117.671997 C 268.02771 115.9151 279.201111 126.223267 280.391083 142.90448 C 281.829498 157.283936 276.321777 168.782166 266.65686 170.446716 Z M 244.942703 176.118713 C 245.742188 164.302002 239.270691 154.404541 232.162247 153.923523 C 225.146042 153.448853 217.400406 162.38446 216.600906 174.201111 C 215.801483 186.017944 222.272919 195.915405 229.289124 196.389984 C 236.397629 196.870972 244.143204 187.935364 244.942703 176.118713 Z M 329.25705 122.468872 C 330.537415 103.543518 322.076569 88.781738 310.259766 87.9823 C 298.443024 87.182739 288.071045 100.67041 286.790558 119.595703 C 285.510193 138.520935 293.971039 153.282715 305.787781 154.082275 C 317.604523 154.881714 327.976654 141.394043 329.25705 122.468872 Z M 203.098572 303.867004 C 190.940384 412.293274 264.405457 450.464783 256.891724 561.523743 C 254.174744 601.682251 279.474701 648.558838 326.74176 651.756653 C 395.241974 656.391174 414.327728 619.658569 419.607422 577.262268 C 427.441528 497.107605 352.377625 482.569458 357.01825 413.977051 C 362.933075 326.551453 459.86731 333.109711 465.301208 252.792603 C 468.980042 198.417114 422.193909 188.110748 396.160217 186.349487 C 346.422821 185.395569 212.76413 195.272125 203.098572 303.867004 Z M 495.971893 114.736145 C 502.852417 84.318909 492.953094 55.177673 471.946045 49.026611 C 451.031403 42.881775 428.106873 65.072571 421.318787 95.495972 C 414.536926 125.827332 424.429962 155.060791 445.344696 161.205505 C 466.351654 167.356567 489.021423 147.559814 495.971893 114.736145 Z M 400.95697 115.448853 C 404.793823 94.378113 394.257477 74.653381 380.20282 71.291199 C 366.234253 68.027527 350.899231 83.590637 346.99234 107.068115 C 343.155457 128.138855 353.691833 147.863647 367.74649 151.22583 C 381.871155 152.181396 397.212463 136.526001 400.95697 115.448853 Z"/>
        </g>
    </g>
</svg>
