<?xml version="1.0" encoding="UTF-8"?>
<!-- Generated by Pixelmator Pro 3.7.1 -->
<svg width="1713" height="668" viewBox="0 0 1713 668" xmlns="http://www.w3.org/2000/svg">
    <g id="Layer-1">
        <path id="Path" fill="#eaf4eb" stroke="none" visibility="hidden" d="M 1883.883789 1412.034546 L -160.119049 1412.034546 L -160.119049 -631.968262 L 1883.883789 -631.968262 L 1883.883789 1412.034546 Z"/>
        <g id="Group">
            <path id="path1" fill="#17ad9b" stroke="none" d="M 61.50531 116.831177 C 52.391418 118.508667 41.760437 108.700928 40.540405 92.823608 C 39.253723 79.236084 44.494019 68.296021 53.60791 66.618408 C 62.809631 64.946777 73.440613 74.754517 74.572815 90.625977 C 75.941406 104.307373 70.70105 115.247437 61.50531 116.831177 Z M 40.845276 122.227783 C 41.605957 110.984741 35.448608 101.567749 28.685242 101.110107 C 22.009644 100.658447 14.640015 109.160278 13.879333 120.40332 C 13.118713 131.646484 19.276001 141.063477 25.951599 141.515015 C 32.715027 141.972656 40.084595 133.470825 40.845276 122.227783 Z M 121.066589 71.182373 C 122.28479 53.175781 114.23468 39.130615 102.991516 38.369995 C 91.748413 37.609253 81.879944 50.442139 80.661621 68.44873 C 79.44342 86.4552 87.49353 100.500366 98.736633 101.261108 C 109.979736 102.021729 119.848328 89.188843 121.066589 71.182373 Z M 1.032471 243.774536 C -10.535492 346.937256 59.36322 383.255737 52.214233 488.92334 C 49.62915 527.132324 73.700928 571.733276 118.673401 574.775879 C 183.848267 579.185425 202.007507 544.235962 207.030884 503.897827 C 214.48468 427.634277 143.064758 413.80188 147.480103 348.539307 C 153.107788 265.357788 245.336365 271.597656 250.50647 195.179565 C 254.006714 143.443726 209.491821 133.637695 184.721924 131.961914 C 137.399048 131.054321 10.228821 140.451416 1.032471 243.774536 Z M 279.688232 63.825073 C 286.234741 34.884399 276.815979 7.157837 256.828735 1.30542 C 236.929382 -4.541138 215.117737 16.572388 208.65918 45.518921 C 202.206543 74.377808 211.619324 102.192139 231.518738 108.038574 C 251.50592 113.890991 273.075195 95.055298 279.688232 63.825073 Z M 189.285828 64.503174 C 192.936401 44.455322 182.91156 25.68811 169.539185 22.489136 C 156.248718 19.383911 141.658142 34.191528 137.940918 56.529297 C 134.290283 76.577148 144.315186 95.34436 157.687561 98.543335 C 171.126526 99.452515 185.723083 84.557129 189.285828 64.503174 Z"/>
            <path id="footstep" fill="#1fa48f" fill-rule="evenodd" stroke="none" d="M 1563.65686 418.646667 C 1569.784302 410.022949 1578.237671 402.817719 1589.017212 397.030762 C 1599.796875 391.243805 1612.108154 388.350372 1625.951538 388.350372 C 1642.064209 388.350372 1656.644897 392.321747 1669.69397 400.264648 C 1682.74292 408.20752 1693.068604 419.49762 1700.671021 434.135223 C 1708.27356 448.772827 1712.074707 465.736328 1712.074707 485.026184 C 1712.074707 504.316101 1708.27356 521.393066 1700.671021 536.257568 C 1693.068604 551.122131 1682.74292 562.63916 1669.69397 570.80896 C 1656.644897 578.978821 1642.064209 583.06366 1625.951538 583.06366 C 1612.108154 583.06366 1599.9104 580.22699 1589.357666 574.553467 C 1578.804932 568.880005 1570.238159 561.731506 1563.65686 553.107788 L 1563.65686 669.867676 L 1515.999756 669.867676 L 1515.999756 391.414032 L 1563.65686 391.414032 L 1563.65686 418.646667 Z M 1663.396362 485.026184 C 1663.396362 473.67923 1661.070313 463.864227 1656.417969 455.580933 C 1651.765747 447.297607 1645.638428 441.000153 1638.036011 436.688293 C 1630.433472 432.376434 1622.207031 430.22052 1613.356445 430.22052 C 1604.732666 430.22052 1596.619751 432.433167 1589.017212 436.85849 C 1581.414795 441.283813 1575.287476 447.694763 1570.635254 456.091522 C 1565.98291 464.488312 1563.65686 474.360046 1563.65686 485.707031 C 1563.65686 497.054016 1565.98291 506.92572 1570.635254 515.32251 C 1575.287476 523.719238 1581.414795 530.130249 1589.017212 534.555542 C 1596.619751 538.980896 1604.732666 541.193481 1613.356445 541.193481 C 1622.207031 541.193481 1630.433472 538.924133 1638.036011 534.385376 C 1645.638428 529.846558 1651.765747 523.378845 1656.417969 514.982117 C 1661.070313 506.585327 1663.396362 496.600128 1663.396362 485.026184 Z M 1481.278198 481.622131 C 1481.278198 488.430298 1480.824341 494.557617 1479.916504 500.00415 L 1342.051392 500.00415 C 1343.186035 513.620544 1347.95166 524.28656 1356.348511 532.002502 C 1364.745239 539.718445 1375.070801 543.576355 1387.325562 543.576355 C 1405.026855 543.576355 1417.621826 535.973999 1425.11084 520.769043 L 1476.512451 520.769043 C 1471.065918 538.924194 1460.626831 553.845276 1445.194946 565.532654 C 1429.763062 577.220093 1410.813843 583.06366 1388.346802 583.06366 C 1370.19165 583.06366 1353.908936 579.035522 1339.498291 570.979187 C 1325.087646 562.922852 1313.854248 551.519287 1305.797852 536.768188 C 1297.741577 522.01709 1293.713379 504.996887 1293.713379 485.707031 C 1293.713379 466.190216 1297.684814 449.056519 1305.627686 434.30542 C 1313.570557 419.554352 1324.69043 408.20752 1338.987671 400.264648 C 1353.284912 392.321747 1369.737793 388.350372 1388.346802 388.350372 C 1406.275024 388.350372 1422.330811 392.208282 1436.514526 399.924225 C 1450.698242 407.640198 1461.704712 418.589874 1469.534058 432.77359 C 1477.363525 446.957336 1481.278198 463.240021 1481.278198 481.622131 Z M 1431.919067 468.005798 C 1431.692139 455.751068 1427.266846 445.936066 1418.643066 438.560516 C 1410.019409 431.184998 1399.466919 427.497284 1386.985229 427.497284 C 1375.184326 427.497284 1365.255859 431.071533 1357.199463 438.220123 C 1349.143188 445.368713 1344.207275 455.29718 1342.391724 468.005798 Z M 1229.376343 430.560944 L 1229.376343 521.790283 C 1229.376343 528.144531 1230.908203 532.73999 1233.971924 535.576782 C 1237.035522 538.413513 1242.198242 539.831848 1249.460449 539.831848 L 1271.586914 539.831848 L 1271.586914 580 L 1241.631104 580 C 1201.462646 580 1181.378906 560.483459 1181.378906 521.449829 L 1181.378906 430.560944 L 1158.911865 430.560944 L 1158.911865 391.414032 L 1181.378906 391.414032 L 1181.378906 344.778168 L 1229.376343 344.778168 L 1229.376343 391.414032 L 1271.586914 391.414032 L 1271.586914 430.560944 Z M 1060.534058 583.06366 C 1045.102051 583.06366 1031.259033 580.283691 1019.004272 574.723694 C 1006.749512 569.163635 997.047974 561.618042 989.899414 552.086548 C 982.750793 542.555054 978.836121 532.002563 978.155334 520.428589 L 1026.152832 520.428589 C 1027.060547 527.690674 1030.634766 533.704468 1036.875732 538.470215 C 1043.116455 543.235962 1050.88916 545.618774 1060.193604 545.618774 C 1069.27124 545.618774 1076.363037 543.803345 1081.469116 540.172241 C 1086.575195 536.54126 1089.128296 531.889038 1089.128296 526.215576 C 1089.128296 520.088196 1086.007935 515.492737 1079.76709 512.429016 C 1073.526245 509.365356 1063.597778 506.018036 1049.981445 502.387024 C 1035.911133 498.98291 1024.394043 495.465393 1015.429993 491.834351 C 1006.465881 488.203308 998.750061 482.643372 992.282227 475.154388 C 985.814453 467.665375 982.580627 457.566711 982.580627 444.858063 C 982.580627 434.418854 985.587524 424.887512 991.60144 416.263824 C 997.615356 407.640106 1006.238892 400.832001 1017.472412 395.839325 C 1028.705933 390.84668 1041.925049 388.350372 1057.129883 388.350372 C 1079.596924 388.350372 1097.524902 393.967041 1110.914429 405.200562 C 1124.303833 416.434082 1131.679199 431.582062 1133.040894 450.64502 L 1087.42627 450.64502 C 1086.745361 443.156006 1083.625 437.198914 1078.065063 432.77359 C 1072.505005 428.348267 1065.072876 426.135651 1055.768311 426.135651 C 1047.144531 426.135651 1040.506714 427.724182 1035.854492 430.901337 C 1031.202148 434.078522 1028.876099 438.503754 1028.876099 444.177246 C 1028.876099 450.531555 1032.053223 455.353973 1038.407471 458.644592 C 1044.761841 461.935211 1054.633545 465.282532 1068.022949 468.686615 C 1081.639404 472.090729 1092.872803 475.608246 1101.723389 479.239258 C 1110.573975 482.8703 1118.233154 488.487 1124.700928 496.089478 C 1131.168701 503.691956 1134.515991 513.733887 1134.74292 526.215576 C 1134.74292 537.108643 1131.736084 546.866943 1125.722168 555.490601 C 1119.708252 564.11438 1111.084717 570.865723 1099.851074 575.744873 C 1088.617676 580.624084 1075.512085 583.06366 1060.534058 583.06366 Z M 911.775818 430.560944 L 911.775818 521.790283 C 911.775818 528.144531 913.307617 532.73999 916.371277 535.576782 C 919.434998 538.413513 924.597778 539.831848 931.859863 539.831848 L 953.986389 539.831848 L 953.986389 580 L 924.030457 580 C 883.862122 580 863.778259 560.483459 863.778259 521.449829 L 863.778259 430.560944 L 841.31134 430.560944 L 841.31134 391.414032 L 863.778259 391.414032 L 863.778259 344.778168 L 911.775818 344.778168 L 911.775818 391.414032 L 953.986389 391.414032 L 953.986389 430.560944 Z M 722.849426 583.06366 C 704.694214 583.06366 688.354858 579.035522 673.830688 570.979187 C 659.306519 562.922852 647.902954 551.519287 639.61969 536.768188 C 631.336426 522.01709 627.194824 504.996887 627.194824 485.707031 C 627.194824 466.417145 631.449829 449.396912 639.960083 434.645844 C 648.470337 419.894745 660.10083 408.491211 674.851929 400.434845 C 689.603027 392.378479 706.055908 388.350372 724.21106 388.350372 C 742.366211 388.350372 758.819092 392.378479 773.57019 400.434845 C 788.321289 408.491211 799.951782 419.894745 808.461975 434.645844 C 816.972229 449.396912 821.227295 466.417145 821.227295 485.707031 C 821.227295 504.996887 816.858765 522.01709 808.121582 536.768188 C 799.384399 551.519287 787.58374 562.922852 772.719177 570.979187 C 757.854614 579.035522 741.231567 583.06366 722.849426 583.06366 Z M 722.849426 541.533936 C 731.473145 541.533936 739.58606 539.434753 747.188599 535.236328 C 754.791077 531.037964 760.861572 524.740479 765.400391 516.34375 C 769.939209 507.94696 772.208557 497.734802 772.208557 485.707031 C 772.208557 467.778778 767.499634 453.992401 758.081665 444.347473 C 748.663635 434.702515 737.146606 429.880127 723.530273 429.880127 C 709.913818 429.880127 698.510315 434.702515 689.319214 444.347473 C 680.128174 453.992401 675.532715 467.778778 675.532715 485.707031 C 675.532715 503.635254 680.014709 517.421631 688.978882 527.066589 C 697.942993 536.711548 709.233032 541.533936 722.849426 541.533936 Z M 505.669189 583.06366 C 487.514038 583.06366 471.174622 579.035522 456.650452 570.979187 C 442.126343 562.922852 430.722778 551.519287 422.439453 536.768188 C 414.156189 522.01709 410.014587 504.996887 410.014587 485.707031 C 410.014587 466.417145 414.269653 449.396912 422.779877 434.645844 C 431.2901 419.894745 442.920593 408.491211 457.671692 400.434845 C 472.422791 392.378479 488.875671 388.350372 507.030823 388.350372 C 525.186035 388.350372 541.638916 392.378479 556.390015 400.434845 C 571.141052 408.491211 582.771545 419.894745 591.281738 434.645844 C 599.791992 449.396912 604.047119 466.417145 604.047119 485.707031 C 604.047119 504.996887 599.678589 522.01709 590.941406 536.768188 C 582.204224 551.519287 570.403503 562.922852 555.53894 570.979187 C 540.674438 579.035522 524.051331 583.06366 505.669189 583.06366 Z M 505.669189 541.533936 C 514.292908 541.533936 522.405884 539.434753 530.008362 535.236328 C 537.61084 531.037964 543.681396 524.740479 548.220215 516.34375 C 552.758972 507.94696 555.02832 497.734802 555.02832 485.707031 C 555.02832 467.778778 550.319397 453.992401 540.901367 444.347473 C 531.483398 434.702515 519.966431 429.880127 506.350006 429.880127 C 492.733643 429.880127 481.330078 434.702515 472.139038 444.347473 C 462.947968 453.992401 458.352509 467.778778 458.352509 485.707031 C 458.352509 503.635254 462.834473 517.421631 471.798615 527.066589 C 480.762726 536.711548 492.052795 541.533936 505.669189 541.533936 Z M 390.951752 430.560944 L 357.93219 430.560944 L 357.93219 580 L 309.594269 580 L 309.594269 430.560944 L 288.14856 430.560944 L 288.14856 391.414032 L 309.594269 391.414032 L 309.594269 381.882629 C 309.594269 358.734772 316.175415 341.714539 329.337921 330.821442 C 342.500427 319.928314 362.357361 314.822266 388.909302 315.503082 L 388.909302 355.671204 C 377.335388 355.444275 369.279114 357.37323 364.740326 361.45813 C 360.201538 365.54306 357.93219 372.918488 357.93219 383.584656 L 357.93219 391.414032 L 390.951752 391.414032 Z"/>
        </g>
    </g>
</svg>
