<?xml version="1.0" encoding="UTF-8"?>
<!-- Generated by Pixelmator Pro 3.7.1 -->
<svg width="1713" height="668" viewBox="0 0 1713 668" xmlns="http://www.w3.org/2000/svg">
    <g id="Layer-1">
        <path id="Path" fill="#eaf4eb" stroke="none" visibility="hidden" d="M 1883.883789 1412.034546 L -160.119049 1412.034546 L -160.119049 -631.968262 L 1883.883789 -631.968262 L 1883.883789 1412.034546 Z"/>
        <g id="Group">
            <path id="path1" fill="#17ad9b" stroke="none" d="M 61.50531 116.831177 C 52.391418 118.508667 41.760437 108.700928 40.540405 92.823608 C 39.253723 79.236084 44.494019 68.296021 53.60791 66.618408 C 62.809631 64.946777 73.440613 74.754517 74.572815 90.625977 C 75.941406 104.307373 70.70105 115.247437 61.50531 116.831177 Z M 40.845276 122.227783 C 41.605957 110.984741 35.448608 101.567749 28.685242 101.110107 C 22.009644 100.658447 14.640015 109.160278 13.879333 120.40332 C 13.118713 131.646484 19.276001 141.063477 25.951599 141.515015 C 32.715027 141.972656 40.084595 133.470825 40.845276 122.227783 Z M 121.066589 71.182373 C 122.28479 53.175781 114.23468 39.130615 102.991516 38.369995 C 91.748413 37.609253 81.879944 50.442139 80.661621 68.44873 C 79.44342 86.4552 87.49353 100.500366 98.736633 101.261108 C 109.979736 102.021729 119.848328 89.188843 121.066589 71.182373 Z M 1.032471 243.774536 C -10.535492 346.937256 59.36322 383.255737 52.214233 488.92334 C 49.62915 527.132324 73.700928 571.733276 118.673401 574.775879 C 183.848267 579.185425 202.007507 544.235962 207.030884 503.897827 C 214.48468 427.634277 143.064758 413.80188 147.480103 348.539307 C 153.107788 265.357788 245.336365 271.597656 250.50647 195.179565 C 254.006714 143.443726 209.491821 133.637695 184.721924 131.961914 C 137.399048 131.054321 10.228821 140.451416 1.032471 243.774536 Z M 279.688232 63.825073 C 286.234741 34.884399 276.815979 7.157837 256.828735 1.30542 C 236.929382 -4.541138 215.117737 16.572388 208.65918 45.518921 C 202.206543 74.377808 211.619324 102.192139 231.518738 108.038574 C 251.50592 113.890991 273.075195 95.055298 279.688232 63.825073 Z M 189.285828 64.503174 C 192.936401 44.455322 182.91156 25.68811 169.539185 22.489136 C 156.248718 19.383911 141.658142 34.191528 137.940918 56.529297 C 134.290283 76.577148 144.315186 95.34436 157.687561 98.543335 C 171.126526 99.452515 185.723083 84.557129 189.285828 64.503174 Z"/>
            <text id="footstep" xml:space="preserve" x="280" y="580" font-family="Poppins" font-size="340.407875" font-weight="600" fill="#1fa48f">footstep</text>
        </g>
    </g>
</svg>
